<?xml version="1.0" encoding="UTF-8" standalone="no"?><svg xmlns="http://www.w3.org/2000/svg" xmlns:xlink="http://www.w3.org/1999/xlink" clip-rule="evenodd" stroke-miterlimit="10" viewBox="0 0 1024 768"><desc>SVG generated by Keynote</desc><defs></defs><g transform="matrix(1.00, 0.00, -0.00, -1.00, 0.0, 768.0)"><path d="M 0.0 768.0 L 1024.0 768.0 L 1024.0 0.0 L 0.0 0.0 Z M 0.0 768.0 " fill="#FEFFFF"></path><text xml:space="preserve" font-family="CenturySchoolbook,Century Schoolbook" font-size="55.0" fill="#000000" transform="matrix(1.00, 0.00, -0.00, -1.00, 347.5, 653.9)">G</text><text xml:space="preserve" font-family="CenturySchoolbook,Century Schoolbook" font-size="55.0" fill="#000000" transform="matrix(1.00, 0.00, -0.00, -1.00, 390.3, 653.9)">o</text><text xml:space="preserve" font-family="CenturySchoolbook,Century Schoolbook" font-size="55.0" fill="#000000" transform="matrix(1.00, 0.00, -0.00, -1.00, 417.8, 653.9)"> </text><text xml:space="preserve" font-family="CenturySchoolbook,Century Schoolbook" font-size="55.0" fill="#000000" transform="matrix(1.00, 0.00, -0.00, -1.00, 433.0, 653.9)">G</text><text xml:space="preserve" font-family="CenturySchoolbook,Century Schoolbook" font-size="55.0" fill="#000000" transform="matrix(1.00, 0.00, -0.00, -1.00, 475.8, 653.9)">i</text><text xml:space="preserve" font-family="CenturySchoolbook,Century Schoolbook" font-size="55.0" fill="#000000" transform="matrix(1.00, 0.00, -0.00, -1.00, 493.1, 653.9)">t</text><text xml:space="preserve" font-family="CenturySchoolbook,Century Schoolbook" font-size="55.0" fill="#000000" transform="matrix(1.00, 0.00, -0.00, -1.00, 514.5, 653.9)"> </text><text xml:space="preserve" font-family="CenturySchoolbook,Century Schoolbook" font-size="55.0" fill="#000000" transform="matrix(1.00, 0.00, -0.00, -1.00, 529.8, 653.9)">T</text><text xml:space="preserve" font-family="CenturySchoolbook,Century Schoolbook" font-size="55.0" fill="#000000" transform="matrix(1.00, 0.00, -0.00, -1.00, 566.5, 653.9)">h</text><text xml:space="preserve" font-family="CenturySchoolbook,Century Schoolbook" font-size="55.0" fill="#000000" transform="matrix(1.00, 0.00, -0.00, -1.00, 600.1, 653.9)">e</text><text xml:space="preserve" font-family="CenturySchoolbook,Century Schoolbook" font-size="55.0" fill="#000000" transform="matrix(1.00, 0.00, -0.00, -1.00, 627.6, 653.9)">m</text><text xml:space="preserve" font-family="CenturySchoolbook,Century Schoolbook" font-size="25.7" fill="#000000" transform="matrix(1.00, 0.00, -0.00, -1.00, 79.0, 555.5)">•</text><text xml:space="preserve" font-family="CenturySchoolbook,Century Schoolbook" font-size="34.2" fill="#000000" transform="matrix(1.00, 0.00, -0.00, -1.00, 112.2, 552.4)">I</text><text xml:space="preserve" font-family="CenturySchoolbook,Century Schoolbook" font-size="34.2" fill="#000000" transform="matrix(1.00, 0.00, -0.00, -1.00, 126.2, 552.4)">t</text><text xml:space="preserve" font-family="CenturySchoolbook,Century Schoolbook" font-size="34.2" fill="#000000" transform="matrix(1.00, 0.00, -0.00, -1.00, 139.5, 552.4)">’</text><text xml:space="preserve" font-family="CenturySchoolbook,Century Schoolbook" font-size="34.2" fill="#000000" transform="matrix(1.00, 0.00, -0.00, -1.00, 146.5, 552.4)">s</text><text xml:space="preserve" font-family="CenturySchoolbook,Century Schoolbook" font-size="34.2" fill="#000000" transform="matrix(1.00, 0.00, -0.00, -1.00, 162.3, 552.4)"> </text><text xml:space="preserve" font-family="CenturySchoolbook,Century Schoolbook" font-size="34.2" fill="#000000" transform="matrix(1.00, 0.00, -0.00, -1.00, 171.8, 552.4)">h</text><text xml:space="preserve" font-family="CenturySchoolbook,Century Schoolbook" font-size="34.2" fill="#000000" transform="matrix(1.00, 0.00, -0.00, -1.00, 192.7, 552.4)">a</text><text xml:space="preserve" font-family="CenturySchoolbook,Century Schoolbook" font-size="34.2" fill="#000000" transform="matrix(1.00, 0.00, -0.00, -1.00, 211.7, 552.4)">r</text><text xml:space="preserve" font-family="CenturySchoolbook,Century Schoolbook" font-size="34.2" fill="#000000" transform="matrix(1.00, 0.00, -0.00, -1.00, 226.9, 552.4)">d</text><text xml:space="preserve" font-family="CenturySchoolbook,Century Schoolbook" font-size="34.2" fill="#000000" transform="matrix(1.00, 0.00, -0.00, -1.00, 246.5, 552.4)"> </text><text xml:space="preserve" font-family="CenturySchoolbook,Century Schoolbook" font-size="34.2" fill="#000000" transform="matrix(1.00, 0.00, -0.00, -1.00, 256.0, 552.4)">t</text><text xml:space="preserve" font-family="CenturySchoolbook,Century Schoolbook" font-size="34.2" fill="#000000" transform="matrix(1.00, 0.00, -0.00, -1.00, 269.3, 552.4)">o</text><text xml:space="preserve" font-family="CenturySchoolbook,Century Schoolbook" font-size="34.2" fill="#000000" transform="matrix(1.00, 0.00, -0.00, -1.00, 286.4, 552.4)"> </text><text xml:space="preserve" font-family="CenturySchoolbook,Century Schoolbook" font-size="34.2" fill="#000000" transform="matrix(1.00, 0.00, -0.00, -1.00, 295.9, 552.4)">d</text><text xml:space="preserve" font-family="CenturySchoolbook,Century Schoolbook" font-size="34.2" fill="#000000" transform="matrix(1.00, 0.00, -0.00, -1.00, 315.6, 552.4)">o</text><text xml:space="preserve" font-family="CenturySchoolbook,Century Schoolbook" font-size="34.2" fill="#000000" transform="matrix(1.00, 0.00, -0.00, -1.00, 332.7, 552.4)"> </text><text xml:space="preserve" font-family="CenturySchoolbook,Century Schoolbook" font-size="34.2" fill="#000000" transform="matrix(1.00, 0.00, -0.00, -1.00, 342.2, 552.4)">p</text><text xml:space="preserve" font-family="CenturySchoolbook,Century Schoolbook" font-size="34.2" fill="#000000" transform="matrix(1.00, 0.00, -0.00, -1.00, 361.8, 552.4)">e</text><text xml:space="preserve" font-family="CenturySchoolbook,Century Schoolbook" font-size="34.2" fill="#000000" transform="matrix(1.00, 0.00, -0.00, -1.00, 378.9, 552.4)">r</text><text xml:space="preserve" font-family="CenturySchoolbook,Century Schoolbook" font-size="34.2" fill="#000000" transform="matrix(1.00, 0.00, -0.00, -1.00, 394.1, 552.4)">m</text><text xml:space="preserve" font-family="CenturySchoolbook,Century Schoolbook" font-size="34.2" fill="#000000" transform="matrix(1.00, 0.00, -0.00, -1.00, 424.5, 552.4)">a</text><text xml:space="preserve" font-family="CenturySchoolbook,Century Schoolbook" font-size="34.2" fill="#000000" transform="matrix(1.00, 0.00, -0.00, -1.00, 443.5, 552.4)">n</text><text xml:space="preserve" font-family="CenturySchoolbook,Century Schoolbook" font-size="34.2" fill="#000000" transform="matrix(1.00, 0.00, -0.00, -1.00, 464.4, 552.4)">e</text><text xml:space="preserve" font-family="CenturySchoolbook,Century Schoolbook" font-size="34.2" fill="#000000" transform="matrix(1.00, 0.00, -0.00, -1.00, 481.5, 552.4)">n</text><text xml:space="preserve" font-family="CenturySchoolbook,Century Schoolbook" font-size="34.2" fill="#000000" transform="matrix(1.00, 0.00, -0.00, -1.00, 502.4, 552.4)">t</text><text xml:space="preserve" font-family="CenturySchoolbook,Century Schoolbook" font-size="34.2" fill="#000000" transform="matrix(1.00, 0.00, -0.00, -1.00, 515.7, 552.4)"> </text><text xml:space="preserve" font-family="CenturySchoolbook,Century Schoolbook" font-size="34.2" fill="#000000" transform="matrix(1.00, 0.00, -0.00, -1.00, 525.2, 552.4)">d</text><text xml:space="preserve" font-family="CenturySchoolbook,Century Schoolbook" font-size="34.2" fill="#000000" transform="matrix(1.00, 0.00, -0.00, -1.00, 544.9, 552.4)">a</text><text xml:space="preserve" font-family="CenturySchoolbook,Century Schoolbook" font-size="34.2" fill="#000000" transform="matrix(1.00, 0.00, -0.00, -1.00, 563.9, 552.4)">m</text><text xml:space="preserve" font-family="CenturySchoolbook,Century Schoolbook" font-size="34.2" fill="#000000" transform="matrix(1.00, 0.00, -0.00, -1.00, 594.3, 552.4)">a</text><text xml:space="preserve" font-family="CenturySchoolbook,Century Schoolbook" font-size="34.2" fill="#000000" transform="matrix(1.00, 0.00, -0.00, -1.00, 613.3, 552.4)">g</text><text xml:space="preserve" font-family="CenturySchoolbook,Century Schoolbook" font-size="34.2" fill="#000000" transform="matrix(1.00, 0.00, -0.00, -1.00, 631.7, 552.4)">e</text><text xml:space="preserve" font-family="CenturySchoolbook,Century Schoolbook" font-size="34.2" fill="#000000" transform="matrix(1.00, 0.00, -0.00, -1.00, 648.8, 552.4)"> </text><text xml:space="preserve" font-family="CenturySchoolbook,Century Schoolbook" font-size="34.2" fill="#000000" transform="matrix(1.00, 0.00, -0.00, -1.00, 658.3, 552.4)">t</text><text xml:space="preserve" font-family="CenturySchoolbook,Century Schoolbook" font-size="34.2" fill="#000000" transform="matrix(1.00, 0.00, -0.00, -1.00, 671.6, 552.4)">o</text><text xml:space="preserve" font-family="CenturySchoolbook,Century Schoolbook" font-size="34.2" fill="#000000" transform="matrix(1.00, 0.00, -0.00, -1.00, 688.7, 552.4)"> </text><text xml:space="preserve" font-family="CenturySchoolbook,Century Schoolbook" font-size="34.2" fill="#000000" transform="matrix(1.00, 0.00, -0.00, -1.00, 698.2, 552.4)">t</text><text xml:space="preserve" font-family="CenturySchoolbook,Century Schoolbook" font-size="34.2" fill="#000000" transform="matrix(1.00, 0.00, -0.00, -1.00, 711.5, 552.4)">h</text><text xml:space="preserve" font-family="CenturySchoolbook,Century Schoolbook" font-size="34.2" fill="#000000" transform="matrix(1.00, 0.00, -0.00, -1.00, 732.4, 552.4)">e</text><text xml:space="preserve" font-family="CenturySchoolbook,Century Schoolbook" font-size="34.2" fill="#000000" transform="matrix(1.00, 0.00, -0.00, -1.00, 749.5, 552.4)"> </text><text xml:space="preserve" font-family="CenturySchoolbook,Century Schoolbook" font-size="34.2" fill="#000000" transform="matrix(1.00, 0.00, -0.00, -1.00, 759.0, 552.4)">m</text><text xml:space="preserve" font-family="CenturySchoolbook,Century Schoolbook" font-size="34.2" fill="#000000" transform="matrix(1.00, 0.00, -0.00, -1.00, 789.4, 552.4)">a</text><text xml:space="preserve" font-family="CenturySchoolbook,Century Schoolbook" font-size="34.2" fill="#000000" transform="matrix(1.00, 0.00, -0.00, -1.00, 808.5, 552.4)">i</text><text xml:space="preserve" font-family="CenturySchoolbook,Century Schoolbook" font-size="34.2" fill="#000000" transform="matrix(1.00, 0.00, -0.00, -1.00, 819.2, 552.4)">n</text><text xml:space="preserve" font-family="CenturySchoolbook,Century Schoolbook" font-size="34.2" fill="#000000" transform="matrix(1.00, 0.00, -0.00, -1.00, 840.1, 552.4)"> </text><text xml:space="preserve" font-family="CenturySchoolbook,Century Schoolbook" font-size="34.2" fill="#000000" transform="matrix(1.00, 0.00, -0.00, -1.00, 849.6, 552.4)">r</text><text xml:space="preserve" font-family="CenturySchoolbook,Century Schoolbook" font-size="34.2" fill="#000000" transform="matrix(1.00, 0.00, -0.00, -1.00, 864.8, 552.4)">e</text><text xml:space="preserve" font-family="CenturySchoolbook,Century Schoolbook" font-size="34.2" fill="#000000" transform="matrix(1.00, 0.00, -0.00, -1.00, 881.9, 552.4)">p</text><text xml:space="preserve" font-family="CenturySchoolbook,Century Schoolbook" font-size="34.2" fill="#000000" transform="matrix(1.00, 0.00, -0.00, -1.00, 901.5, 552.4)">o</text><text xml:space="preserve" font-family="CenturySchoolbook,Century Schoolbook" font-size="34.2" fill="#000000" transform="matrix(1.00, 0.00, -0.00, -1.00, 918.6, 552.4)">.</text><text xml:space="preserve" font-family="CenturySchoolbook,Century Schoolbook" font-size="34.2" fill="#000000" transform="matrix(1.00, 0.00, -0.00, -1.00, 928.1, 552.4)"> </text><text xml:space="preserve" font-family="CenturySchoolbook,Century Schoolbook" font-size="25.7" fill="#000000" transform="matrix(1.00, 0.00, -0.00, -1.00, 79.0, 474.6)">•</text><text xml:space="preserve" font-family="CenturySchoolbook,Century Schoolbook" font-size="34.2" fill="#000000" transform="matrix(1.00, 0.00, -0.00, -1.00, 112.2, 471.5)">L</text><text xml:space="preserve" font-family="CenturySchoolbook,Century Schoolbook" font-size="34.2" fill="#000000" transform="matrix(1.00, 0.00, -0.00, -1.00, 135.1, 471.5)">e</text><text xml:space="preserve" font-family="CenturySchoolbook,Century Schoolbook" font-size="34.2" fill="#000000" transform="matrix(1.00, 0.00, -0.00, -1.00, 152.2, 471.5)">a</text><text xml:space="preserve" font-family="CenturySchoolbook,Century Schoolbook" font-size="34.2" fill="#000000" transform="matrix(1.00, 0.00, -0.00, -1.00, 171.2, 471.5)">r</text><text xml:space="preserve" font-family="CenturySchoolbook,Century Schoolbook" font-size="34.2" fill="#000000" transform="matrix(1.00, 0.00, -0.00, -1.00, 186.4, 471.5)">n</text><text xml:space="preserve" font-family="CenturySchoolbook,Century Schoolbook" font-size="34.2" fill="#000000" transform="matrix(1.00, 0.00, -0.00, -1.00, 207.2, 471.5)"> </text><text xml:space="preserve" font-family="CenturySchoolbook,Century Schoolbook" font-size="34.2" fill="#000000" transform="matrix(1.00, 0.00, -0.00, -1.00, 216.7, 471.5)">a</text><text xml:space="preserve" font-family="CenturySchoolbook,Century Schoolbook" font-size="34.2" fill="#000000" transform="matrix(1.00, 0.00, -0.00, -1.00, 235.8, 471.5)"> </text><text xml:space="preserve" font-family="CenturySchoolbook,Century Schoolbook" font-size="34.2" fill="#000000" transform="matrix(1.00, 0.00, -0.00, -1.00, 245.3, 471.5)">f</text><text xml:space="preserve" font-family="CenturySchoolbook,Century Schoolbook" font-size="34.2" fill="#000000" transform="matrix(1.00, 0.00, -0.00, -1.00, 256.7, 471.5)">e</text><text xml:space="preserve" font-family="CenturySchoolbook,Century Schoolbook" font-size="34.2" fill="#000000" transform="matrix(1.00, 0.00, -0.00, -1.00, 273.8, 471.5)">w</text><text xml:space="preserve" font-family="CenturySchoolbook,Century Schoolbook" font-size="34.2" fill="#000000" transform="matrix(1.00, 0.00, -0.00, -1.00, 300.3, 471.5)"> </text><text xml:space="preserve" font-family="CenturySchoolbook,Century Schoolbook" font-size="34.2" fill="#000000" transform="matrix(1.00, 0.00, -0.00, -1.00, 309.8, 471.5)">g</text><text xml:space="preserve" font-family="CenturySchoolbook,Century Schoolbook" font-size="34.2" fill="#000000" transform="matrix(1.00, 0.00, -0.00, -1.00, 328.2, 471.5)">i</text><text xml:space="preserve" font-family="CenturySchoolbook,Century Schoolbook" font-size="34.2" fill="#000000" transform="matrix(1.00, 0.00, -0.00, -1.00, 339.0, 471.5)">t</text><text xml:space="preserve" font-family="CenturySchoolbook,Century Schoolbook" font-size="34.2" fill="#000000" transform="matrix(1.00, 0.00, -0.00, -1.00, 352.3, 471.5)"> </text><text xml:space="preserve" font-family="CenturySchoolbook,Century Schoolbook" font-size="34.2" fill="#000000" transform="matrix(1.00, 0.00, -0.00, -1.00, 361.8, 471.5)">c</text><text xml:space="preserve" font-family="CenturySchoolbook,Century Schoolbook" font-size="34.2" fill="#000000" transform="matrix(1.00, 0.00, -0.00, -1.00, 377.0, 471.5)">o</text><text xml:space="preserve" font-family="CenturySchoolbook,Century Schoolbook" font-size="34.2" fill="#000000" transform="matrix(1.00, 0.00, -0.00, -1.00, 394.1, 471.5)">m</text><text xml:space="preserve" font-family="CenturySchoolbook,Century Schoolbook" font-size="34.2" fill="#000000" transform="matrix(1.00, 0.00, -0.00, -1.00, 424.5, 471.5)">m</text><text xml:space="preserve" font-family="CenturySchoolbook,Century Schoolbook" font-size="34.2" fill="#000000" transform="matrix(1.00, 0.00, -0.00, -1.00, 454.9, 471.5)">a</text><text xml:space="preserve" font-family="CenturySchoolbook,Century Schoolbook" font-size="34.2" fill="#000000" transform="matrix(1.00, 0.00, -0.00, -1.00, 473.9, 471.5)">n</text><text xml:space="preserve" font-family="CenturySchoolbook,Century Schoolbook" font-size="34.2" fill="#000000" transform="matrix(1.00, 0.00, -0.00, -1.00, 494.8, 471.5)">d</text><text xml:space="preserve" font-family="CenturySchoolbook,Century Schoolbook" font-size="34.2" fill="#000000" transform="matrix(1.00, 0.00, -0.00, -1.00, 514.5, 471.5)">s</text><text xml:space="preserve" font-family="CenturySchoolbook,Century Schoolbook" font-size="34.2" fill="#000000" transform="matrix(1.00, 0.00, -0.00, -1.00, 530.3, 471.5)"> </text><text xml:space="preserve" font-family="CenturySchoolbook,Century Schoolbook" font-size="34.2" fill="#000000" transform="matrix(1.00, 0.00, -0.00, -1.00, 539.8, 471.5)">a</text><text xml:space="preserve" font-family="CenturySchoolbook,Century Schoolbook" font-size="34.2" fill="#000000" transform="matrix(1.00, 0.00, -0.00, -1.00, 558.8, 471.5)">t</text><text xml:space="preserve" font-family="CenturySchoolbook,Century Schoolbook" font-size="34.2" fill="#000000" transform="matrix(1.00, 0.00, -0.00, -1.00, 572.1, 471.5)"> </text><text xml:space="preserve" font-family="CenturySchoolbook,Century Schoolbook" font-size="34.2" fill="#000000" transform="matrix(1.00, 0.00, -0.00, -1.00, 581.6, 471.5)">a</text><text xml:space="preserve" font-family="CenturySchoolbook,Century Schoolbook" font-size="34.2" fill="#000000" transform="matrix(1.00, 0.00, -0.00, -1.00, 600.6, 471.5)"> </text><text xml:space="preserve" font-family="CenturySchoolbook,Century Schoolbook" font-size="34.2" fill="#000000" transform="matrix(1.00, 0.00, -0.00, -1.00, 610.1, 471.5)">t</text><text xml:space="preserve" font-family="CenturySchoolbook,Century Schoolbook" font-size="34.2" fill="#000000" transform="matrix(1.00, 0.00, -0.00, -1.00, 623.5, 471.5)">i</text><text xml:space="preserve" font-family="CenturySchoolbook,Century Schoolbook" font-size="34.2" fill="#000000" transform="matrix(1.00, 0.00, -0.00, -1.00, 634.2, 471.5)">m</text><text xml:space="preserve" font-family="CenturySchoolbook,Century Schoolbook" font-size="34.2" fill="#000000" transform="matrix(1.00, 0.00, -0.00, -1.00, 664.6, 471.5)">e</text><text xml:space="preserve" font-family="CenturySchoolbook,Century Schoolbook" font-size="34.2" fill="#000000" transform="matrix(1.00, 0.00, -0.00, -1.00, 681.7, 471.5)">.</text><text xml:space="preserve" font-family="CenturySchoolbook,Century Schoolbook" font-size="34.2" fill="#000000" transform="matrix(1.00, 0.00, -0.00, -1.00, 691.2, 471.5)"> </text><text xml:space="preserve" font-family="CenturySchoolbook,Century Schoolbook" font-size="25.7" fill="#000000" transform="matrix(1.00, 0.00, -0.00, -1.00, 79.0, 393.7)">•</text><text xml:space="preserve" font-family="CenturySchoolbook,Century Schoolbook" font-size="34.2" fill="#000000" transform="matrix(1.00, 0.00, -0.00, -1.00, 112.2, 390.6)">R</text><text xml:space="preserve" font-family="CenturySchoolbook,Century Schoolbook" font-size="34.2" fill="#000000" transform="matrix(1.00, 0.00, -0.00, -1.00, 137.0, 390.6)">e</text><text xml:space="preserve" font-family="CenturySchoolbook,Century Schoolbook" font-size="34.2" fill="#000000" transform="matrix(1.00, 0.00, -0.00, -1.00, 154.1, 390.6)">m</text><text xml:space="preserve" font-family="CenturySchoolbook,Century Schoolbook" font-size="34.2" fill="#000000" transform="matrix(1.00, 0.00, -0.00, -1.00, 184.5, 390.6)">e</text><text xml:space="preserve" font-family="CenturySchoolbook,Century Schoolbook" font-size="34.2" fill="#000000" transform="matrix(1.00, 0.00, -0.00, -1.00, 201.6, 390.6)">m</text><text xml:space="preserve" font-family="CenturySchoolbook,Century Schoolbook" font-size="34.2" fill="#000000" transform="matrix(1.00, 0.00, -0.00, -1.00, 232.0, 390.6)">b</text><text xml:space="preserve" font-family="CenturySchoolbook,Century Schoolbook" font-size="34.2" fill="#000000" transform="matrix(1.00, 0.00, -0.00, -1.00, 251.0, 390.6)">e</text><text xml:space="preserve" font-family="CenturySchoolbook,Century Schoolbook" font-size="34.2" fill="#000000" transform="matrix(1.00, 0.00, -0.00, -1.00, 268.1, 390.6)">r</text><text xml:space="preserve" font-family="CenturySchoolbook,Century Schoolbook" font-size="34.2" fill="#000000" transform="matrix(1.00, 0.00, -0.00, -1.00, 283.3, 390.6)">:</text><text xml:space="preserve" font-family="CenturySchoolbook,Century Schoolbook" font-size="34.2" fill="#000000" transform="matrix(1.00, 0.00, -0.00, -1.00, 292.8, 390.6)"> </text><text xml:space="preserve" font-family="CenturySchoolbook,Century Schoolbook" font-size="34.2" fill="#000000" transform="matrix(1.00, 0.00, -0.00, -1.00, 302.3, 390.6)">o</text><text xml:space="preserve" font-family="CenturySchoolbook,Century Schoolbook" font-size="34.2" fill="#000000" transform="matrix(1.00, 0.00, -0.00, -1.00, 319.4, 390.6)">n</text><text xml:space="preserve" font-family="CenturySchoolbook,Century Schoolbook" font-size="34.2" fill="#000000" transform="matrix(1.00, 0.00, -0.00, -1.00, 340.3, 390.6)">e</text><text xml:space="preserve" font-family="CenturySchoolbook,Century Schoolbook" font-size="34.2" fill="#000000" transform="matrix(1.00, 0.00, -0.00, -1.00, 357.4, 390.6)"> </text><text xml:space="preserve" font-family="CenturySchoolbook,Century Schoolbook" font-size="34.2" fill="#000000" transform="matrix(1.00, 0.00, -0.00, -1.00, 366.9, 390.6)">w</text><text xml:space="preserve" font-family="CenturySchoolbook,Century Schoolbook" font-size="34.2" fill="#000000" transform="matrix(1.00, 0.00, -0.00, -1.00, 393.5, 390.6)">e</text><text xml:space="preserve" font-family="CenturySchoolbook,Century Schoolbook" font-size="34.2" fill="#000000" transform="matrix(1.00, 0.00, -0.00, -1.00, 410.6, 390.6)">b</text><text xml:space="preserve" font-family="CenturySchoolbook,Century Schoolbook" font-size="34.2" fill="#000000" transform="matrix(1.00, 0.00, -0.00, -1.00, 429.6, 390.6)"> </text><text xml:space="preserve" font-family="CenturySchoolbook,Century Schoolbook" font-size="34.2" fill="#000000" transform="matrix(1.00, 0.00, -0.00, -1.00, 439.1, 390.6)">p</text><text xml:space="preserve" font-family="CenturySchoolbook,Century Schoolbook" font-size="34.2" fill="#000000" transform="matrix(1.00, 0.00, -0.00, -1.00, 458.7, 390.6)">a</text><text xml:space="preserve" font-family="CenturySchoolbook,Century Schoolbook" font-size="34.2" fill="#000000" transform="matrix(1.00, 0.00, -0.00, -1.00, 477.7, 390.6)">g</text><text xml:space="preserve" font-family="CenturySchoolbook,Century Schoolbook" font-size="34.2" fill="#000000" transform="matrix(1.00, 0.00, -0.00, -1.00, 496.1, 390.6)">e</text><text xml:space="preserve" font-family="CenturySchoolbook,Century Schoolbook" font-size="34.2" fill="#000000" transform="matrix(1.00, 0.00, -0.00, -1.00, 513.2, 390.6)"> </text><text xml:space="preserve" font-family="CenturySchoolbook,Century Schoolbook" font-size="34.2" fill="#000000" transform="matrix(1.00, 0.00, -0.00, -1.00, 522.7, 390.6)">=</text><text xml:space="preserve" font-family="CenturySchoolbook,Century Schoolbook" font-size="34.2" fill="#000000" transform="matrix(1.00, 0.00, -0.00, -1.00, 543.4, 390.6)"> </text><text xml:space="preserve" font-family="CenturySchoolbook,Century Schoolbook" font-size="34.2" fill="#000000" transform="matrix(1.00, 0.00, -0.00, -1.00, 552.9, 390.6)">o</text><text xml:space="preserve" font-family="CenturySchoolbook,Century Schoolbook" font-size="34.2" fill="#000000" transform="matrix(1.00, 0.00, -0.00, -1.00, 570.0, 390.6)">n</text><text xml:space="preserve" font-family="CenturySchoolbook,Century Schoolbook" font-size="34.2" fill="#000000" transform="matrix(1.00, 0.00, -0.00, -1.00, 590.9, 390.6)">e</text><text xml:space="preserve" font-family="CenturySchoolbook,Century Schoolbook" font-size="34.2" fill="#000000" transform="matrix(1.00, 0.00, -0.00, -1.00, 608.0, 390.6)"> </text><text xml:space="preserve" font-family="CenturySchoolbook,Century Schoolbook" font-size="34.2" fill="#000000" transform="matrix(1.00, 0.00, -0.00, -1.00, 617.5, 390.6)">d</text><text xml:space="preserve" font-family="CenturySchoolbook,Century Schoolbook" font-size="34.2" fill="#000000" transform="matrix(1.00, 0.00, -0.00, -1.00, 637.2, 390.6)">i</text><text xml:space="preserve" font-family="CenturySchoolbook,Century Schoolbook" font-size="34.2" fill="#000000" transform="matrix(1.00, 0.00, -0.00, -1.00, 647.9, 390.6)">r</text><text xml:space="preserve" font-family="CenturySchoolbook,Century Schoolbook" font-size="34.2" fill="#000000" transform="matrix(1.00, 0.00, -0.00, -1.00, 663.1, 390.6)">e</text><text xml:space="preserve" font-family="CenturySchoolbook,Century Schoolbook" font-size="34.2" fill="#000000" transform="matrix(1.00, 0.00, -0.00, -1.00, 680.2, 390.6)">c</text><text xml:space="preserve" font-family="CenturySchoolbook,Century Schoolbook" font-size="34.2" fill="#000000" transform="matrix(1.00, 0.00, -0.00, -1.00, 695.4, 390.6)">t</text><text xml:space="preserve" font-family="CenturySchoolbook,Century Schoolbook" font-size="34.2" fill="#000000" transform="matrix(1.00, 0.00, -0.00, -1.00, 708.7, 390.6)">o</text><text xml:space="preserve" font-family="CenturySchoolbook,Century Schoolbook" font-size="34.2" fill="#000000" transform="matrix(1.00, 0.00, -0.00, -1.00, 725.8, 390.6)">r</text><text xml:space="preserve" font-family="CenturySchoolbook,Century Schoolbook" font-size="34.2" fill="#000000" transform="matrix(1.00, 0.00, -0.00, -1.00, 741.0, 390.6)">y</text><text xml:space="preserve" font-family="CenturySchoolbook,Century Schoolbook" font-size="34.2" fill="#000000" transform="matrix(1.00, 0.00, -0.00, -1.00, 759.3, 390.6)"> </text><text xml:space="preserve" font-family="CenturySchoolbook,Century Schoolbook" font-size="25.7" fill="#000000" transform="matrix(1.00, 0.00, -0.00, -1.00, 79.0, 312.8)">•</text><text xml:space="preserve" font-family="CenturySchoolbook,Century Schoolbook" font-size="34.2" fill="#000000" transform="matrix(1.00, 0.00, -0.00, -1.00, 112.2, 309.7)">F</text><text xml:space="preserve" font-family="CenturySchoolbook,Century Schoolbook" font-size="34.2" fill="#000000" transform="matrix(1.00, 0.00, -0.00, -1.00, 135.1, 309.7)">i</text><text xml:space="preserve" font-family="CenturySchoolbook,Century Schoolbook" font-size="34.2" fill="#000000" transform="matrix(1.00, 0.00, -0.00, -1.00, 145.8, 309.7)">l</text><text xml:space="preserve" font-family="CenturySchoolbook,Century Schoolbook" font-size="34.2" fill="#000000" transform="matrix(1.00, 0.00, -0.00, -1.00, 156.6, 309.7)">e</text><text xml:space="preserve" font-family="CenturySchoolbook,Century Schoolbook" font-size="34.2" fill="#000000" transform="matrix(1.00, 0.00, -0.00, -1.00, 173.7, 309.7)"> </text><text xml:space="preserve" font-family="CenturySchoolbook,Century Schoolbook" font-size="34.2" fill="#000000" transform="matrix(1.00, 0.00, -0.00, -1.00, 183.2, 309.7)">n</text><text xml:space="preserve" font-family="CenturySchoolbook,Century Schoolbook" font-size="34.2" fill="#000000" transform="matrix(1.00, 0.00, -0.00, -1.00, 204.1, 309.7)">a</text><text xml:space="preserve" font-family="CenturySchoolbook,Century Schoolbook" font-size="34.2" fill="#000000" transform="matrix(1.00, 0.00, -0.00, -1.00, 223.1, 309.7)">m</text><text xml:space="preserve" font-family="CenturySchoolbook,Century Schoolbook" font-size="34.2" fill="#000000" transform="matrix(1.00, 0.00, -0.00, -1.00, 253.5, 309.7)">e</text><text xml:space="preserve" font-family="CenturySchoolbook,Century Schoolbook" font-size="34.2" fill="#000000" transform="matrix(1.00, 0.00, -0.00, -1.00, 270.6, 309.7)">s</text><text xml:space="preserve" font-family="CenturySchoolbook,Century Schoolbook" font-size="34.2" fill="#000000" transform="matrix(1.00, 0.00, -0.00, -1.00, 286.4, 309.7)"> </text><text xml:space="preserve" font-family="CenturySchoolbook,Century Schoolbook" font-size="34.2" fill="#000000" transform="matrix(1.00, 0.00, -0.00, -1.00, 295.9, 309.7)">e</text><text xml:space="preserve" font-family="CenturySchoolbook,Century Schoolbook" font-size="34.2" fill="#000000" transform="matrix(1.00, 0.00, -0.00, -1.00, 313.0, 309.7)">n</text><text xml:space="preserve" font-family="CenturySchoolbook,Century Schoolbook" font-size="34.2" fill="#000000" transform="matrix(1.00, 0.00, -0.00, -1.00, 333.9, 309.7)">d</text><text xml:space="preserve" font-family="CenturySchoolbook,Century Schoolbook" font-size="34.2" fill="#000000" transform="matrix(1.00, 0.00, -0.00, -1.00, 353.6, 309.7)"> </text><text xml:space="preserve" font-family="CenturySchoolbook,Century Schoolbook" font-size="34.2" fill="#000000" transform="matrix(1.00, 0.00, -0.00, -1.00, 363.1, 309.7)">i</text><text xml:space="preserve" font-family="CenturySchoolbook,Century Schoolbook" font-size="34.2" fill="#000000" transform="matrix(1.00, 0.00, -0.00, -1.00, 373.8, 309.7)">n</text><text xml:space="preserve" font-family="CenturySchoolbook,Century Schoolbook" font-size="34.2" fill="#000000" transform="matrix(1.00, 0.00, -0.00, -1.00, 394.7, 309.7)"> </text><text xml:space="preserve" font-family="CenturySchoolbook,Century Schoolbook" font-size="34.2" fill="#000000" transform="matrix(1.00, 0.00, -0.00, -1.00, 404.2, 309.7)">.</text><text xml:space="preserve" font-family="CenturySchoolbook,Century Schoolbook" font-size="34.2" fill="#000000" transform="matrix(1.00, 0.00, -0.00, -1.00, 413.7, 309.7)">m</text><text xml:space="preserve" font-family="CenturySchoolbook,Century Schoolbook" font-size="34.2" fill="#000000" transform="matrix(1.00, 0.00, -0.00, -1.00, 444.1, 309.7)">d</text><text xml:space="preserve" font-family="CenturySchoolbook,Century Schoolbook" font-size="34.2" fill="#000000" transform="matrix(1.00, 0.00, -0.00, -1.00, 463.8, 309.7)"> </text><text xml:space="preserve" font-family="CenturySchoolbook,Century Schoolbook" font-size="25.7" fill="#000000" transform="matrix(1.00, 0.00, -0.00, -1.00, 79.0, 231.9)">•</text><text xml:space="preserve" font-family="CenturySchoolbook,Century Schoolbook" font-size="34.2" fill="#000000" transform="matrix(1.00, 0.00, -0.00, -1.00, 112.2, 228.8)">F</text><text xml:space="preserve" font-family="CenturySchoolbook,Century Schoolbook" font-size="34.2" fill="#000000" transform="matrix(1.00, 0.00, -0.00, -1.00, 135.1, 228.8)">o</text><text xml:space="preserve" font-family="CenturySchoolbook,Century Schoolbook" font-size="34.2" fill="#000000" transform="matrix(1.00, 0.00, -0.00, -1.00, 152.2, 228.8)">r</text><text xml:space="preserve" font-family="CenturySchoolbook,Century Schoolbook" font-size="34.2" fill="#000000" transform="matrix(1.00, 0.00, -0.00, -1.00, 167.3, 228.8)"> </text><text xml:space="preserve" font-family="CenturySchoolbook,Century Schoolbook" font-size="34.2" fill="#000000" transform="matrix(1.00, 0.00, -0.00, -1.00, 176.8, 228.8)">b</text><text xml:space="preserve" font-family="CenturySchoolbook,Century Schoolbook" font-size="34.2" fill="#000000" transform="matrix(1.00, 0.00, -0.00, -1.00, 195.9, 228.8)">a</text><text xml:space="preserve" font-family="CenturySchoolbook,Century Schoolbook" font-size="34.2" fill="#000000" transform="matrix(1.00, 0.00, -0.00, -1.00, 214.9, 228.8)">s</text><text xml:space="preserve" font-family="CenturySchoolbook,Century Schoolbook" font-size="34.2" fill="#000000" transform="matrix(1.00, 0.00, -0.00, -1.00, 230.7, 228.8)">i</text><text xml:space="preserve" font-family="CenturySchoolbook,Century Schoolbook" font-size="34.2" fill="#000000" transform="matrix(1.00, 0.00, -0.00, -1.00, 241.5, 228.8)">c</text><text xml:space="preserve" font-family="CenturySchoolbook,Century Schoolbook" font-size="34.2" fill="#000000" transform="matrix(1.00, 0.00, -0.00, -1.00, 256.7, 228.8)"> </text><text xml:space="preserve" font-family="CenturySchoolbook,Century Schoolbook" font-size="34.2" fill="#000000" transform="matrix(1.00, 0.00, -0.00, -1.00, 266.1, 228.8)">M</text><text xml:space="preserve" font-family="CenturySchoolbook,Century Schoolbook" font-size="34.2" fill="#000000" transform="matrix(1.00, 0.00, -0.00, -1.00, 298.4, 228.8)">a</text><text xml:space="preserve" font-family="CenturySchoolbook,Century Schoolbook" font-size="34.2" fill="#000000" transform="matrix(1.00, 0.00, -0.00, -1.00, 317.4, 228.8)">r</text><text xml:space="preserve" font-family="CenturySchoolbook,Century Schoolbook" font-size="34.2" fill="#000000" transform="matrix(1.00, 0.00, -0.00, -1.00, 332.6, 228.8)">k</text><text xml:space="preserve" font-family="CenturySchoolbook,Century Schoolbook" font-size="34.2" fill="#000000" transform="matrix(1.00, 0.00, -0.00, -1.00, 352.9, 228.8)">d</text><text xml:space="preserve" font-family="CenturySchoolbook,Century Schoolbook" font-size="34.2" fill="#000000" transform="matrix(1.00, 0.00, -0.00, -1.00, 372.5, 228.8)">o</text><text xml:space="preserve" font-family="CenturySchoolbook,Century Schoolbook" font-size="34.2" fill="#000000" transform="matrix(1.00, 0.00, -0.00, -1.00, 389.6, 228.8)">w</text><text xml:space="preserve" font-family="CenturySchoolbook,Century Schoolbook" font-size="34.2" fill="#000000" transform="matrix(1.00, 0.00, -0.00, -1.00, 416.2, 228.8)">n</text><text xml:space="preserve" font-family="CenturySchoolbook,Century Schoolbook" font-size="34.2" fill="#000000" transform="matrix(1.00, 0.00, -0.00, -1.00, 437.1, 228.8)"> </text><text xml:space="preserve" font-family="CenturySchoolbook,Century Schoolbook" font-size="34.2" fill="#000000" transform="matrix(1.00, 0.00, -0.00, -1.00, 446.6, 228.8)">h</text><text xml:space="preserve" font-family="CenturySchoolbook,Century Schoolbook" font-size="34.2" fill="#000000" transform="matrix(1.00, 0.00, -0.00, -1.00, 467.5, 228.8)">e</text><text xml:space="preserve" font-family="CenturySchoolbook,Century Schoolbook" font-size="34.2" fill="#000000" transform="matrix(1.00, 0.00, -0.00, -1.00, 484.6, 228.8)">l</text><text xml:space="preserve" font-family="CenturySchoolbook,Century Schoolbook" font-size="34.2" fill="#000000" transform="matrix(1.00, 0.00, -0.00, -1.00, 495.4, 228.8)">p</text><text xml:space="preserve" font-family="CenturySchoolbook,Century Schoolbook" font-size="34.2" fill="#000000" transform="matrix(1.00, 0.00, -0.00, -1.00, 515.0, 228.8)"> </text><text xml:space="preserve" font-family="CenturySchoolbook,Century Schoolbook" font-size="34.2" fill="#000000" transform="matrix(1.00, 0.00, -0.00, -1.00, 524.5, 228.8)">s</text><text xml:space="preserve" font-family="CenturySchoolbook,Century Schoolbook" font-size="34.2" fill="#000000" transform="matrix(1.00, 0.00, -0.00, -1.00, 540.3, 228.8)">e</text><text xml:space="preserve" font-family="CenturySchoolbook,Century Schoolbook" font-size="34.2" fill="#000000" transform="matrix(1.00, 0.00, -0.00, -1.00, 557.4, 228.8)">e</text><text xml:space="preserve" font-family="CenturySchoolbook,Century Schoolbook" font-size="34.2" fill="#000000" transform="matrix(1.00, 0.00, -0.00, -1.00, 574.5, 228.8)"> </text><text xml:space="preserve" font-family="CenturySchoolbook,Century Schoolbook" font-size="34.2" fill="#000000" transform="matrix(1.00, 0.00, -0.00, -1.00, 584.1, 228.8)">h</text><text xml:space="preserve" font-family="CenturySchoolbook,Century Schoolbook" font-size="34.2" fill="#000000" transform="matrix(1.00, 0.00, -0.00, -1.00, 605.0, 228.8)">t</text><text xml:space="preserve" font-family="CenturySchoolbook,Century Schoolbook" font-size="34.2" fill="#000000" transform="matrix(1.00, 0.00, -0.00, -1.00, 618.3, 228.8)">t</text><text xml:space="preserve" font-family="CenturySchoolbook,Century Schoolbook" font-size="34.2" fill="#000000" transform="matrix(1.00, 0.00, -0.00, -1.00, 631.6, 228.8)">p</text><text xml:space="preserve" font-family="CenturySchoolbook,Century Schoolbook" font-size="34.2" fill="#000000" transform="matrix(1.00, 0.00, -0.00, -1.00, 651.2, 228.8)">:</text><text xml:space="preserve" font-family="CenturySchoolbook,Century Schoolbook" font-size="34.2" fill="#000000" transform="matrix(1.00, 0.00, -0.00, -1.00, 660.7, 228.8)">/</text><text xml:space="preserve" font-family="CenturySchoolbook,Century Schoolbook" font-size="34.2" fill="#000000" transform="matrix(1.00, 0.00, -0.00, -1.00, 670.2, 228.8)">/</text><text xml:space="preserve" font-family="CenturySchoolbook,Century Schoolbook" font-size="34.2" fill="#000000" transform="matrix(1.00, 0.00, -0.00, -1.00, 679.7, 228.8)">g</text><text xml:space="preserve" font-family="CenturySchoolbook,Century Schoolbook" font-size="34.2" fill="#000000" transform="matrix(1.00, 0.00, -0.00, -1.00, 698.1, 228.8)">e</text><text xml:space="preserve" font-family="CenturySchoolbook,Century Schoolbook" font-size="34.2" fill="#000000" transform="matrix(1.00, 0.00, -0.00, -1.00, 715.2, 228.8)">t</text><text xml:space="preserve" font-family="CenturySchoolbook,Century Schoolbook" font-size="34.2" fill="#000000" transform="matrix(1.00, 0.00, -0.00, -1.00, 728.5, 228.8)">k</text><text xml:space="preserve" font-family="CenturySchoolbook,Century Schoolbook" font-size="34.2" fill="#000000" transform="matrix(1.00, 0.00, -0.00, -1.00, 748.8, 228.8)">i</text><text xml:space="preserve" font-family="CenturySchoolbook,Century Schoolbook" font-size="34.2" fill="#000000" transform="matrix(1.00, 0.00, -0.00, -1.00, 759.6, 228.8)">r</text><text xml:space="preserve" font-family="CenturySchoolbook,Century Schoolbook" font-size="34.2" fill="#000000" transform="matrix(1.00, 0.00, -0.00, -1.00, 774.7, 228.8)">b</text><text xml:space="preserve" font-family="CenturySchoolbook,Century Schoolbook" font-size="34.2" fill="#000000" transform="matrix(1.00, 0.00, -0.00, -1.00, 793.8, 228.8)">y</text><text xml:space="preserve" font-family="CenturySchoolbook,Century Schoolbook" font-size="34.2" fill="#000000" transform="matrix(1.00, 0.00, -0.00, -1.00, 812.1, 228.8)">.</text><text xml:space="preserve" font-family="CenturySchoolbook,Century Schoolbook" font-size="34.2" fill="#000000" transform="matrix(1.00, 0.00, -0.00, -1.00, 821.6, 228.8)">c</text><text xml:space="preserve" font-family="CenturySchoolbook,Century Schoolbook" font-size="34.2" fill="#000000" transform="matrix(1.00, 0.00, -0.00, -1.00, 836.8, 228.8)">o</text><text xml:space="preserve" font-family="CenturySchoolbook,Century Schoolbook" font-size="34.2" fill="#000000" transform="matrix(1.00, 0.00, -0.00, -1.00, 853.9, 228.8)">m</text><text xml:space="preserve" font-family="CenturySchoolbook,Century Schoolbook" font-size="34.2" fill="#000000" transform="matrix(1.00, 0.00, -0.00, -1.00, 884.3, 228.8)">/</text><g><clipPath id="clip0x7fd488be8240"><path d="M 583.1 223.5 L 893.8 223.5 L 893.8 227.2 L 583.1 227.2 Z M 583.1 223.5 "></path></clipPath><g clip-path="url(#clip0x7fd488be8240)"><path d="M 509.1 364.6 L 818.8 364.6 " fill="none" stroke="#000000" stroke-width="1.70" transform="matrix(1.00, 0.00, 0.00, -1.00, 75.0, 590.0)"></path></g></g><text xml:space="preserve" font-family="CenturySchoolbook,Century Schoolbook" font-size="34.2" fill="#000000" transform="matrix(1.00, 0.00, -0.00, -1.00, 112.2, 187.8)">b</text><text xml:space="preserve" font-family="CenturySchoolbook,Century Schoolbook" font-size="34.2" fill="#000000" transform="matrix(1.00, 0.00, -0.00, -1.00, 131.3, 187.8)">l</text><text xml:space="preserve" font-family="CenturySchoolbook,Century Schoolbook" font-size="34.2" fill="#000000" transform="matrix(1.00, 0.00, -0.00, -1.00, 142.0, 187.8)">o</text><text xml:space="preserve" font-family="CenturySchoolbook,Century Schoolbook" font-size="34.2" fill="#000000" transform="matrix(1.00, 0.00, -0.00, -1.00, 159.1, 187.8)">g</text><text xml:space="preserve" font-family="CenturySchoolbook,Century Schoolbook" font-size="34.2" fill="#000000" transform="matrix(1.00, 0.00, -0.00, -1.00, 177.5, 187.8)">/</text><text xml:space="preserve" font-family="CenturySchoolbook,Century Schoolbook" font-size="34.2" fill="#000000" transform="matrix(1.00, 0.00, -0.00, -1.00, 187.0, 187.8)">t</text><text xml:space="preserve" font-family="CenturySchoolbook,Century Schoolbook" font-size="34.2" fill="#000000" transform="matrix(1.00, 0.00, -0.00, -1.00, 200.3, 187.8)">e</text><text xml:space="preserve" font-family="CenturySchoolbook,Century Schoolbook" font-size="34.2" fill="#000000" transform="matrix(1.00, 0.00, -0.00, -1.00, 217.4, 187.8)">x</text><text xml:space="preserve" font-family="CenturySchoolbook,Century Schoolbook" font-size="34.2" fill="#000000" transform="matrix(1.00, 0.00, -0.00, -1.00, 235.8, 187.8)">t</text><text xml:space="preserve" font-family="CenturySchoolbook,Century Schoolbook" font-size="34.2" fill="#000000" transform="matrix(1.00, 0.00, -0.00, -1.00, 249.1, 187.8)">-</text><text xml:space="preserve" font-family="CenturySchoolbook,Century Schoolbook" font-size="34.2" fill="#000000" transform="matrix(1.00, 0.00, -0.00, -1.00, 260.5, 187.8)">f</text><text xml:space="preserve" font-family="CenturySchoolbook,Century Schoolbook" font-size="34.2" fill="#000000" transform="matrix(1.00, 0.00, -0.00, -1.00, 271.9, 187.8)">o</text><text xml:space="preserve" font-family="CenturySchoolbook,Century Schoolbook" font-size="34.2" fill="#000000" transform="matrix(1.00, 0.00, -0.00, -1.00, 289.0, 187.8)">r</text><text xml:space="preserve" font-family="CenturySchoolbook,Century Schoolbook" font-size="34.2" fill="#000000" transform="matrix(1.00, 0.00, -0.00, -1.00, 304.2, 187.8)">m</text><text xml:space="preserve" font-family="CenturySchoolbook,Century Schoolbook" font-size="34.2" fill="#000000" transform="matrix(1.00, 0.00, -0.00, -1.00, 334.6, 187.8)">a</text><text xml:space="preserve" font-family="CenturySchoolbook,Century Schoolbook" font-size="34.2" fill="#000000" transform="matrix(1.00, 0.00, -0.00, -1.00, 353.6, 187.8)">t</text><text xml:space="preserve" font-family="CenturySchoolbook,Century Schoolbook" font-size="34.2" fill="#000000" transform="matrix(1.00, 0.00, -0.00, -1.00, 366.9, 187.8)">t</text><text xml:space="preserve" font-family="CenturySchoolbook,Century Schoolbook" font-size="34.2" fill="#000000" transform="matrix(1.00, 0.00, -0.00, -1.00, 380.2, 187.8)">i</text><text xml:space="preserve" font-family="CenturySchoolbook,Century Schoolbook" font-size="34.2" fill="#000000" transform="matrix(1.00, 0.00, -0.00, -1.00, 391.0, 187.8)">n</text><text xml:space="preserve" font-family="CenturySchoolbook,Century Schoolbook" font-size="34.2" fill="#000000" transform="matrix(1.00, 0.00, -0.00, -1.00, 411.9, 187.8)">g</text><text xml:space="preserve" font-family="CenturySchoolbook,Century Schoolbook" font-size="34.2" fill="#000000" transform="matrix(1.00, 0.00, -0.00, -1.00, 430.3, 187.8)">-</text><text xml:space="preserve" font-family="CenturySchoolbook,Century Schoolbook" font-size="34.2" fill="#000000" transform="matrix(1.00, 0.00, -0.00, -1.00, 441.7, 187.8)">1</text><text xml:space="preserve" font-family="CenturySchoolbook,Century Schoolbook" font-size="34.2" fill="#000000" transform="matrix(1.00, 0.00, -0.00, -1.00, 460.7, 187.8)">0</text><text xml:space="preserve" font-family="CenturySchoolbook,Century Schoolbook" font-size="34.2" fill="#000000" transform="matrix(1.00, 0.00, -0.00, -1.00, 479.7, 187.8)">1</text><text xml:space="preserve" font-family="CenturySchoolbook,Century Schoolbook" font-size="34.2" fill="#000000" transform="matrix(1.00, 0.00, -0.00, -1.00, 498.7, 187.8)"> </text><g><clipPath id="clip0x7fd48935d0a0"><path d="M 111.2 182.5 L 498.7 182.5 L 498.7 186.2 L 111.2 186.2 Z M 111.2 182.5 "></path></clipPath><g clip-path="url(#clip0x7fd48935d0a0)"><path d="M 37.2 405.6 L 423.7 405.6 " fill="none" stroke="#000000" stroke-width="1.70" transform="matrix(1.00, 0.00, 0.00, -1.00, 75.0, 590.0)"></path></g></g><text xml:space="preserve" font-family="CenturySchoolbook,Century Schoolbook" font-size="25.7" fill="#000000" transform="matrix(1.00, 0.00, -0.00, -1.00, 79.0, 110.0)">•</text><text xml:space="preserve" font-family="CenturySchoolbook,Century Schoolbook" font-size="34.2" fill="#000000" transform="matrix(1.00, 0.00, -0.00, -1.00, 112.2, 106.9)">I</text><text xml:space="preserve" font-family="CenturySchoolbook,Century Schoolbook" font-size="34.2" fill="#000000" transform="matrix(1.00, 0.00, -0.00, -1.00, 126.2, 106.9)">f</text><text xml:space="preserve" font-family="CenturySchoolbook,Century Schoolbook" font-size="34.2" fill="#000000" transform="matrix(1.00, 0.00, -0.00, -1.00, 137.6, 106.9)"> </text><text xml:space="preserve" font-family="CenturySchoolbook,Century Schoolbook" font-size="34.2" fill="#000000" transform="matrix(1.00, 0.00, -0.00, -1.00, 147.1, 106.9)">y</text><text xml:space="preserve" font-family="CenturySchoolbook,Century Schoolbook" font-size="34.2" fill="#000000" transform="matrix(1.00, 0.00, -0.00, -1.00, 165.4, 106.9)">o</text><text xml:space="preserve" font-family="CenturySchoolbook,Century Schoolbook" font-size="34.2" fill="#000000" transform="matrix(1.00, 0.00, -0.00, -1.00, 182.5, 106.9)">u</text><text xml:space="preserve" font-family="CenturySchoolbook,Century Schoolbook" font-size="34.2" fill="#000000" transform="matrix(1.00, 0.00, -0.00, -1.00, 203.4, 106.9)"> </text><text xml:space="preserve" font-family="CenturySchoolbook,Century Schoolbook" font-size="34.2" fill="#000000" transform="matrix(1.00, 0.00, -0.00, -1.00, 212.9, 106.9)">h</text><text xml:space="preserve" font-family="CenturySchoolbook,Century Schoolbook" font-size="34.2" fill="#000000" transform="matrix(1.00, 0.00, -0.00, -1.00, 233.8, 106.9)">a</text><text xml:space="preserve" font-family="CenturySchoolbook,Century Schoolbook" font-size="34.2" fill="#000000" transform="matrix(1.00, 0.00, -0.00, -1.00, 252.8, 106.9)">v</text><text xml:space="preserve" font-family="CenturySchoolbook,Century Schoolbook" font-size="34.2" fill="#000000" transform="matrix(1.00, 0.00, -0.00, -1.00, 271.2, 106.9)">e</text><text xml:space="preserve" font-family="CenturySchoolbook,Century Schoolbook" font-size="34.2" fill="#000000" transform="matrix(1.00, 0.00, -0.00, -1.00, 288.3, 106.9)"> </text><text xml:space="preserve" font-family="CenturySchoolbook,Century Schoolbook" font-size="34.2" fill="#000000" transform="matrix(1.00, 0.00, -0.00, -1.00, 297.8, 106.9)">q</text><text xml:space="preserve" font-family="CenturySchoolbook,Century Schoolbook" font-size="34.2" fill="#000000" transform="matrix(1.00, 0.00, -0.00, -1.00, 316.8, 106.9)">u</text><text xml:space="preserve" font-family="CenturySchoolbook,Century Schoolbook" font-size="34.2" fill="#000000" transform="matrix(1.00, 0.00, -0.00, -1.00, 337.7, 106.9)">e</text><text xml:space="preserve" font-family="CenturySchoolbook,Century Schoolbook" font-size="34.2" fill="#000000" transform="matrix(1.00, 0.00, -0.00, -1.00, 354.8, 106.9)">s</text><text xml:space="preserve" font-family="CenturySchoolbook,Century Schoolbook" font-size="34.2" fill="#000000" transform="matrix(1.00, 0.00, -0.00, -1.00, 370.6, 106.9)">t</text><text xml:space="preserve" font-family="CenturySchoolbook,Century Schoolbook" font-size="34.2" fill="#000000" transform="matrix(1.00, 0.00, -0.00, -1.00, 384.0, 106.9)">i</text><text xml:space="preserve" font-family="CenturySchoolbook,Century Schoolbook" font-size="34.2" fill="#000000" transform="matrix(1.00, 0.00, -0.00, -1.00, 394.7, 106.9)">o</text><text xml:space="preserve" font-family="CenturySchoolbook,Century Schoolbook" font-size="34.2" fill="#000000" transform="matrix(1.00, 0.00, -0.00, -1.00, 411.8, 106.9)">n</text><text xml:space="preserve" font-family="CenturySchoolbook,Century Schoolbook" font-size="34.2" fill="#000000" transform="matrix(1.00, 0.00, -0.00, -1.00, 432.7, 106.9)">s</text><text xml:space="preserve" font-family="CenturySchoolbook,Century Schoolbook" font-size="34.2" fill="#000000" transform="matrix(1.00, 0.00, -0.00, -1.00, 448.5, 106.9)">,</text><text xml:space="preserve" font-family="CenturySchoolbook,Century Schoolbook" font-size="34.2" fill="#000000" transform="matrix(1.00, 0.00, -0.00, -1.00, 458.0, 106.9)"> </text><text xml:space="preserve" font-family="CenturySchoolbook,Century Schoolbook" font-size="34.2" fill="#000000" transform="matrix(1.00, 0.00, -0.00, -1.00, 467.5, 106.9)">a</text><text xml:space="preserve" font-family="CenturySchoolbook,Century Schoolbook" font-size="34.2" fill="#000000" transform="matrix(1.00, 0.00, -0.00, -1.00, 486.5, 106.9)">s</text><text xml:space="preserve" font-family="CenturySchoolbook,Century Schoolbook" font-size="34.2" fill="#000000" transform="matrix(1.00, 0.00, -0.00, -1.00, 502.4, 106.9)">k</text><text xml:space="preserve" font-family="CenturySchoolbook,Century Schoolbook" font-size="34.2" fill="#000000" transform="matrix(1.00, 0.00, -0.00, -1.00, 522.6, 106.9)">.</text></g></svg>